<?xml version="1.0" encoding="utf-8"?>
<!-- Generator: Adobe Illustrator 24.0.1, SVG Export Plug-In . SVG Version: 6.00 Build 0)  -->
<svg  version="1.1" id="图层_1" xmlns="http://www.w3.org/2000/svg" xmlns:xlink="http://www.w3.org/1999/xlink" x="0px" y="0px"
	 viewBox="100 100 348 340" style="fill:white;enable-background:new 0 0 548 540;" xml:space="preserve">
<style type="text/css">
	.st0{stroke:#000000;stroke-width:0.3147;stroke-miterlimit:10;}
	.st1{stroke:#000000;stroke-width:0.309;stroke-miterlimit:10;}
</style>
<g>
	<path class="st0" d="M432.1,248.8c-3.5,39.9-13.5,53.1-36.8,75.9c-16,11.7-32.7,18.3-52.4,16.6c-1.6-0.1-6.2-0.5-7.8-0.8
		c-43.4-6.1-77.3-42.6-80.1-86.4c-2.5-39.7,19.7-74.5,52.8-90.5c-15.4-3.6-32-4.2-49.1-0.7c-50.4,10.3-88.3,54.1-91,105.4
		c-2.2,41.5,17.7,78.4,49,100.1c-51-13.3-90-48.4-98-94.9c-0.7-4.1-1.1-8.1-1.3-12.2c-0.6,5.4-0.9,10.9-0.9,16.5
		c0,87.9,71.3,159.1,159.1,159.1c87.9,0,159.1-71.3,159.1-159.1C434.8,267.9,433.8,258.2,432.1,248.8z"/>
	<path class="st1" d="M426.1,265.2c-7.2-80.4-78.2-139.8-158.6-132.7c-80.4,7.2-139.8,78.2-132.7,158.6v0
		c-13.6-52,4.3-107.8,46.9-140.7c23.6-18.3,52.5-30.2,84.5-33.1c6.6-0.6,13.2-0.8,19.7-0.6C364.8,119.2,426.7,186.1,426.1,265.2
		L426.1,265.2z"/>
</g>
</svg>
